# xmcd
#
# Track frame offsets: 
#        150
#        13212
#        28124
#        40990
#        56224
#        72935
#        86802
#        103401
#        116009
#        130715
#        145855
#        161422
#
# Disc length: 2347 seconds
#
# Revision: 1
# Processed by: cddbd v1.5.2PL0 Copyright (c) Steve Scherf et al.
# Submitted via: ExactAudioCopyFreeDBPlugin 1.0
#
DISCID=ae09290c
DTITLE=Olivia Newton-John - 1975 - Great Hits  (First Impressions)
DYEAR=1975
DGENRE=Country
TTITLE0=If Not For You
TTITLE1=Banks Of The Ohio
TTITLE2=Winterwood
TTITLE3=Take Me Home, Country Road
TTITLE4=Amoureuse
TTITLE5=Let Me Be There
TTITLE6=I Love You, I Honestly Love You
TTITLE7=Long Live Love
TTITLE8=If You Love Me Let Me Know
TTITLE9=What Is Life
TTITLE10=If We Try
TTITLE11=Music Makes My Day
EXTD=
EXTT0=
EXTT1=
EXTT2=
EXTT3=
EXTT4=
EXTT5=
EXTT6=
EXTT7=
EXTT8=
EXTT9=
EXTT10=
EXTT11=
PLAYORDER=
